<?xml version="1.0" encoding="UTF-8"?>
<svg id="Layer_1" data-name="Layer 1" xmlns="http://www.w3.org/2000/svg" viewBox="0 0 109.74 40.14">
  <defs>
    <style>
      .cls-1 {
        fill: none;
        stroke: #000;
        stroke-linecap: round;
        stroke-linejoin: round;
        stroke-width: 2px;
      }
    </style>
  </defs>
  <rect class="cls-1" x="1" y="1" width="107.74" height="38.14" rx="2" ry="2"/>
  <g>
    <path class="cls-1" d="M20.17,28.09l3-3h2c1.1,0,2-.9,2-2v-9c0-1.1-.9-2-2-2H9.17c-1.1,0-2,.9-2,2v9c0,1.1.9,2,2,2h2l3,3h6Z"/>
    <path class="cls-1" d="M11.17,16.09v1"/>
    <path class="cls-1" d="M15.17,16.09v1"/>
    <path class="cls-1" d="M19.17,16.09v1"/>
    <path class="cls-1" d="M23.17,16.09v1"/>
  </g>
  <g>
    <path class="cls-1" d="M45.57,28.09l3-3h2c1.1,0,2-.9,2-2v-9c0-1.1-.9-2-2-2h-16c-1.1,0-2,.9-2,2v9c0,1.1.9,2,2,2h2l3,3h6Z"/>
    <path class="cls-1" d="M36.57,16.09v1"/>
    <path class="cls-1" d="M40.57,16.09v1"/>
    <path class="cls-1" d="M44.57,16.09v1"/>
    <path class="cls-1" d="M48.57,16.09v1"/>
  </g>
  <g>
    <path class="cls-1" d="M70.96,28.09l3-3h2c1.1,0,2-.9,2-2v-9c0-1.1-.9-2-2-2h-16c-1.1,0-2,.9-2,2v9c0,1.1.9,2,2,2h2l3,3h6Z"/>
    <path class="cls-1" d="M61.96,16.09v1"/>
    <path class="cls-1" d="M65.96,16.09v1"/>
    <path class="cls-1" d="M69.96,16.09v1"/>
    <path class="cls-1" d="M73.96,16.09v1"/>
  </g>
  <g>
    <path class="cls-1" d="M96.35,28.09l3-3h2c1.1,0,2-.9,2-2v-9c0-1.1-.9-2-2-2h-16c-1.1,0-2,.9-2,2v9c0,1.1.9,2,2,2h2l3,3h6Z"/>
    <path class="cls-1" d="M87.35,16.09v1"/>
    <path class="cls-1" d="M91.35,16.09v1"/>
    <path class="cls-1" d="M95.35,16.09v1"/>
    <path class="cls-1" d="M99.35,16.09v1"/>
  </g>
</svg>