<?xml version="1.0" encoding="iso-8859-1"?>
<!-- Generator: Adobe Illustrator 30.1.0, SVG Export Plug-In . SVG Version: 9.03 Build 0)  -->
<svg version="1.1" id="Layer_1" xmlns="http://www.w3.org/2000/svg" xmlns:xlink="http://www.w3.org/1999/xlink" x="0px" y="0px"
	 viewBox="0 0 150 150" style="enable-background:new 0 0 150 150;" xml:space="preserve">
<path style="fill:none;stroke:#000000;stroke-width:2;stroke-miterlimit:10;" d="M72.831,116.464
	c-24.681,0-44.689-20.008-44.689-44.689s20.008-44.689,44.689-44.689s44.689,20.008,44.689,44.689"/>
<path d="M89.087,72.984l-12.579-7.262c-5.218-3.013-11.741,0.753-11.741,6.779v14.524l12.579-7.262
	c5.218-3.013,5.218-10.545,0-13.558l-12.579-7.262v14.524c0,6.026,6.523,9.792,11.741,6.779L89.087,72.984z"/>
<rect x="108.448" y="70.685" width="17.985" height="15.805"/>
<line style="fill:none;stroke:#000000;stroke-width:2;stroke-miterlimit:10;" x1="104.701" y1="86.49" x2="129.77" y2="86.49"/>
<g>
	<line style="fill:none;stroke:#000000;stroke-width:2;stroke-miterlimit:10;" x1="113.898" y1="85.945" x2="113.898" y2="95.209"/>
	<line style="fill:none;stroke:#000000;stroke-width:2;stroke-miterlimit:10;" x1="120.982" y1="85.945" x2="120.982" y2="95.209"/>
</g>
</svg>
